<svg width="380" height="24" viewBox="0 0 380 24" fill="none" xmlns="http://www.w3.org/2000/svg">
<path d="M9.37734 19.072C7.80934 19.072 6.37734 18.696 5.08134 17.944C3.80134 17.192 2.78534 16.168 2.03334 14.872C1.29734 13.576 0.929344 12.152 0.929344 10.6C0.929344 9.048 1.29734 7.624 2.03334 6.328C2.78534 5.032 3.80934 4.008 5.10534 3.256C6.40134 2.504 7.84134 2.128 9.42534 2.128C11.0093 2.128 12.4413 2.496 13.7213 3.232C15.0173 3.968 16.0333 4.984 16.7693 6.28C17.5053 7.56 17.8733 8.984 17.8733 10.552C17.8733 12.12 17.4973 13.56 16.7453 14.872C15.9933 16.168 14.9693 17.192 13.6733 17.944C12.3773 18.696 10.9453 19.072 9.37734 19.072ZM9.37734 17.992C10.7533 17.992 12.0013 17.664 13.1213 17.008C14.2413 16.352 15.1213 15.456 15.7613 14.32C16.4173 13.184 16.7453 11.928 16.7453 10.552C16.7453 9.176 16.4253 7.928 15.7853 6.808C15.1613 5.688 14.2893 4.808 13.1693 4.168C12.0653 3.528 10.8173 3.208 9.42534 3.208C8.04934 3.208 6.79334 3.536 5.65734 4.192C4.53734 4.848 3.65734 5.744 3.01734 6.88C2.37734 8 2.05734 9.24 2.05734 10.6C2.05734 11.96 2.37734 13.208 3.01734 14.344C3.65734 15.464 4.53734 16.352 5.65734 17.008C6.77734 17.664 8.01734 17.992 9.37734 17.992ZM9.64134 15.544C8.66534 15.544 7.79334 15.336 7.02534 14.92C6.25734 14.504 5.65734 13.92 5.22534 13.168C4.79334 12.416 4.57734 11.56 4.57734 10.6C4.57734 9.64 4.79334 8.784 5.22534 8.032C5.65734 7.28 6.25734 6.696 7.02534 6.28C7.79334 5.864 8.66534 5.656 9.64134 5.656C10.4733 5.656 11.2333 5.832 11.9213 6.184C12.6093 6.536 13.1453 7.008 13.5293 7.6L12.1613 8.584C11.5853 7.72 10.7373 7.288 9.61734 7.288C8.68934 7.288 7.92134 7.592 7.31334 8.2C6.70534 8.808 6.40134 9.608 6.40134 10.6C6.40134 11.592 6.70534 12.392 7.31334 13C7.92134 13.608 8.68934 13.912 9.61734 13.912C10.7373 13.912 11.5853 13.48 12.1613 12.616L13.5293 13.576C13.1453 14.184 12.6093 14.664 11.9213 15.016C11.2333 15.368 10.4733 15.544 9.64134 15.544ZM38.4248 16.912V19H26.3528V17.368L33.1928 10.768C34.0248 9.968 34.5848 9.28 34.8728 8.704C35.1608 8.112 35.3048 7.52 35.3048 6.928C35.3048 6.048 34.9928 5.368 34.3688 4.888C33.7608 4.392 32.8808 4.144 31.7288 4.144C29.8728 4.144 28.4408 4.752 27.4328 5.968L25.8008 4.552C26.4568 3.752 27.3128 3.128 28.3688 2.68C29.4408 2.232 30.6328 2.008 31.9448 2.008C33.7048 2.008 35.1048 2.432 36.1448 3.28C37.1848 4.112 37.7048 5.248 37.7048 6.688C37.7048 7.584 37.5128 8.432 37.1288 9.232C36.7448 10.032 36.0168 10.944 34.9448 11.968L29.8088 16.912H38.4248ZM47.1918 19.192C45.8638 19.192 44.6798 18.856 43.6398 18.184C42.6158 17.496 41.8078 16.504 41.2158 15.208C40.6238 13.912 40.3278 12.376 40.3278 10.6C40.3278 8.824 40.6238 7.288 41.2158 5.992C41.8078 4.696 42.6158 3.712 43.6398 3.04C44.6798 2.352 45.8638 2.008 47.1918 2.008C48.5038 2.008 49.6718 2.352 50.6958 3.04C51.7358 3.712 52.5518 4.696 53.1438 5.992C53.7358 7.288 54.0318 8.824 54.0318 10.6C54.0318 12.376 53.7358 13.912 53.1438 15.208C52.5518 16.504 51.7358 17.496 50.6958 18.184C49.6718 18.856 48.5038 19.192 47.1918 19.192ZM47.1918 17.056C48.5358 17.056 49.6078 16.504 50.4078 15.4C51.2238 14.296 51.6318 12.696 51.6318 10.6C51.6318 8.504 51.2238 6.904 50.4078 5.8C49.6078 4.696 48.5358 4.144 47.1918 4.144C45.8318 4.144 44.7438 4.696 43.9278 5.8C43.1278 6.904 42.7278 8.504 42.7278 10.6C42.7278 12.696 43.1278 14.296 43.9278 15.4C44.7438 16.504 45.8318 17.056 47.1918 17.056ZM68.0733 16.912V19H56.0013V17.368L62.8413 10.768C63.6733 9.968 64.2333 9.28 64.5213 8.704C64.8093 8.112 64.9533 7.52 64.9533 6.928C64.9533 6.048 64.6413 5.368 64.0173 4.888C63.4093 4.392 62.5293 4.144 61.3773 4.144C59.5213 4.144 58.0893 4.752 57.0813 5.968L55.4493 4.552C56.1053 3.752 56.9613 3.128 58.0173 2.68C59.0893 2.232 60.2813 2.008 61.5933 2.008C63.3533 2.008 64.7533 2.432 65.7933 3.28C66.8333 4.112 67.3533 5.248 67.3533 6.688C67.3533 7.584 67.1613 8.432 66.7773 9.232C66.3933 10.032 65.6653 10.944 64.5933 11.968L59.4573 16.912H68.0733ZM76.8402 19.192C75.5122 19.192 74.3282 18.856 73.2882 18.184C72.2642 17.496 71.4562 16.504 70.8642 15.208C70.2722 13.912 69.9762 12.376 69.9762 10.6C69.9762 8.824 70.2722 7.288 70.8642 5.992C71.4562 4.696 72.2642 3.712 73.2882 3.04C74.3282 2.352 75.5122 2.008 76.8402 2.008C78.1522 2.008 79.3202 2.352 80.3442 3.04C81.3842 3.712 82.2002 4.696 82.7922 5.992C83.3842 7.288 83.6802 8.824 83.6802 10.6C83.6802 12.376 83.3842 13.912 82.7922 15.208C82.2002 16.504 81.3842 17.496 80.3442 18.184C79.3202 18.856 78.1522 19.192 76.8402 19.192ZM76.8402 17.056C78.1842 17.056 79.2562 16.504 80.0562 15.4C80.8722 14.296 81.2802 12.696 81.2802 10.6C81.2802 8.504 80.8722 6.904 80.0562 5.8C79.2562 4.696 78.1842 4.144 76.8402 4.144C75.4802 4.144 74.3922 4.696 73.5762 5.8C72.7762 6.904 72.3762 8.504 72.3762 10.6C72.3762 12.696 72.7762 14.296 73.5762 15.4C74.3922 16.504 75.4802 17.056 76.8402 17.056ZM99.2693 11.536L96.1973 14.656V19H93.7973V2.2H96.1973V11.584L105.317 2.2H108.053L100.877 9.76L108.509 19H105.701L99.2693 11.536ZM115.039 6.16C116.799 6.16 118.143 6.592 119.071 7.456C120.015 8.32 120.487 9.608 120.487 11.32V19H118.303V17.32C117.919 17.912 117.367 18.368 116.647 18.688C115.943 18.992 115.103 19.144 114.127 19.144C112.703 19.144 111.559 18.8 110.695 18.112C109.847 17.424 109.423 16.52 109.423 15.4C109.423 14.28 109.831 13.384 110.647 12.712C111.463 12.024 112.759 11.68 114.535 11.68H118.183V11.224C118.183 10.232 117.895 9.472 117.319 8.944C116.743 8.416 115.895 8.152 114.775 8.152C114.023 8.152 113.287 8.28 112.567 8.536C111.847 8.776 111.239 9.104 110.743 9.52L109.783 7.792C110.439 7.264 111.223 6.864 112.135 6.592C113.047 6.304 114.015 6.16 115.039 6.16ZM114.511 17.368C115.391 17.368 116.151 17.176 116.791 16.792C117.431 16.392 117.895 15.832 118.183 15.112V13.336H114.631C112.679 13.336 111.703 13.992 111.703 15.304C111.703 15.944 111.951 16.448 112.447 16.816C112.943 17.184 113.631 17.368 114.511 17.368ZM128.398 19.144C127.358 19.144 126.358 19.008 125.398 18.736C124.438 18.448 123.686 18.088 123.142 17.656L124.102 15.832C124.662 16.232 125.342 16.552 126.142 16.792C126.942 17.032 127.75 17.152 128.566 17.152C130.582 17.152 131.59 16.576 131.59 15.424C131.59 15.04 131.454 14.736 131.182 14.512C130.91 14.288 130.566 14.128 130.15 14.032C129.75 13.92 129.174 13.8 128.422 13.672C127.398 13.512 126.558 13.328 125.902 13.12C125.262 12.912 124.71 12.56 124.246 12.064C123.782 11.568 123.55 10.872 123.55 9.976C123.55 8.824 124.03 7.904 124.99 7.216C125.95 6.512 127.238 6.16 128.854 6.16C129.702 6.16 130.55 6.264 131.398 6.472C132.246 6.68 132.942 6.96 133.486 7.312L132.502 9.136C131.462 8.464 130.238 8.128 128.83 8.128C127.854 8.128 127.11 8.288 126.598 8.608C126.086 8.928 125.83 9.352 125.83 9.88C125.83 10.296 125.974 10.624 126.262 10.864C126.55 11.104 126.902 11.28 127.318 11.392C127.75 11.504 128.35 11.632 129.118 11.776C130.142 11.952 130.966 12.144 131.59 12.352C132.23 12.544 132.774 12.88 133.222 13.36C133.67 13.84 133.894 14.512 133.894 15.376C133.894 16.528 133.398 17.448 132.406 18.136C131.43 18.808 130.094 19.144 128.398 19.144ZM141.406 6.16C143.166 6.16 144.51 6.592 145.438 7.456C146.382 8.32 146.854 9.608 146.854 11.32V19H144.67V17.32C144.286 17.912 143.734 18.368 143.014 18.688C142.31 18.992 141.47 19.144 140.494 19.144C139.07 19.144 137.926 18.8 137.062 18.112C136.214 17.424 135.79 16.52 135.79 15.4C135.79 14.28 136.198 13.384 137.014 12.712C137.83 12.024 139.126 11.68 140.902 11.68H144.55V11.224C144.55 10.232 144.262 9.472 143.686 8.944C143.11 8.416 142.262 8.152 141.142 8.152C140.39 8.152 139.654 8.28 138.934 8.536C138.214 8.776 137.606 9.104 137.11 9.52L136.15 7.792C136.806 7.264 137.59 6.864 138.502 6.592C139.414 6.304 140.382 6.16 141.406 6.16ZM140.878 17.368C141.758 17.368 142.518 17.176 143.158 16.792C143.798 16.392 144.262 15.832 144.55 15.112V13.336H140.998C139.046 13.336 138.07 13.992 138.07 15.304C138.07 15.944 138.318 16.448 138.814 16.816C139.31 17.184 139.998 17.368 140.878 17.368ZM151.67 19.144C151.222 19.144 150.838 18.992 150.518 18.688C150.198 18.368 150.038 17.968 150.038 17.488C150.038 17.024 150.198 16.64 150.518 16.336C150.838 16.016 151.222 15.856 151.67 15.856C152.118 15.856 152.494 16.008 152.798 16.312C153.102 16.616 153.254 17.008 153.254 17.488C153.254 17.968 153.094 18.368 152.774 18.688C152.47 18.992 152.102 19.144 151.67 19.144ZM174.04 14.8H165.112L163.264 19H160.792L168.4 2.2H170.776L178.408 19H175.888L174.04 14.8ZM173.2 12.88L169.576 4.648L165.952 12.88H173.2ZM180.579 1.192H182.883V19H180.579V1.192ZM187.282 1.192H189.586V19H187.282V1.192ZM202.638 8.416C203.038 7.68 203.63 7.12 204.414 6.736C205.198 6.352 206.15 6.16 207.27 6.16V8.392C207.142 8.376 206.966 8.368 206.742 8.368C205.494 8.368 204.51 8.744 203.79 9.496C203.086 10.232 202.734 11.288 202.734 12.664V19H200.43V6.28H202.638V8.416ZM210.11 6.28H212.414V19H210.11V6.28ZM211.262 3.832C210.814 3.832 210.438 3.688 210.134 3.4C209.846 3.112 209.702 2.76 209.702 2.344C209.702 1.928 209.846 1.576 210.134 1.288C210.438 0.983999 210.814 0.831999 211.262 0.831999C211.71 0.831999 212.078 0.975999 212.366 1.264C212.67 1.536 212.822 1.88 212.822 2.296C212.822 2.728 212.67 3.096 212.366 3.4C212.078 3.688 211.71 3.832 211.262 3.832ZM228.981 6.28V17.272C228.981 19.496 228.429 21.136 227.325 22.192C226.221 23.264 224.573 23.8 222.381 23.8C221.181 23.8 220.037 23.632 218.949 23.296C217.861 22.976 216.981 22.512 216.309 21.904L217.413 20.128C218.005 20.64 218.733 21.04 219.597 21.328C220.477 21.632 221.381 21.784 222.309 21.784C223.797 21.784 224.893 21.432 225.597 20.728C226.317 20.024 226.677 18.952 226.677 17.512V16.504C226.133 17.16 225.461 17.656 224.661 17.992C223.877 18.312 223.021 18.472 222.093 18.472C220.877 18.472 219.773 18.216 218.781 17.704C217.805 17.176 217.037 16.448 216.477 15.52C215.917 14.576 215.637 13.504 215.637 12.304C215.637 11.104 215.917 10.04 216.477 9.112C217.037 8.168 217.805 7.44 218.781 6.928C219.773 6.416 220.877 6.16 222.093 6.16C223.053 6.16 223.941 6.336 224.757 6.688C225.589 7.04 226.269 7.56 226.797 8.248V6.28H228.981ZM222.357 16.456C223.189 16.456 223.933 16.28 224.589 15.928C225.261 15.576 225.781 15.088 226.149 14.464C226.533 13.824 226.725 13.104 226.725 12.304C226.725 11.072 226.317 10.08 225.501 9.328C224.685 8.56 223.637 8.176 222.357 8.176C221.061 8.176 220.005 8.56 219.189 9.328C218.373 10.08 217.965 11.072 217.965 12.304C217.965 13.104 218.149 13.824 218.517 14.464C218.901 15.088 219.421 15.576 220.077 15.928C220.749 16.28 221.509 16.456 222.357 16.456ZM240.175 6.16C241.791 6.16 243.071 6.632 244.015 7.576C244.975 8.504 245.455 9.872 245.455 11.68V19H243.151V11.944C243.151 10.712 242.855 9.784 242.263 9.16C241.671 8.536 240.823 8.224 239.719 8.224C238.471 8.224 237.487 8.592 236.767 9.328C236.047 10.048 235.687 11.088 235.687 12.448V19H233.383V1.192H235.687V8.08C236.167 7.472 236.791 7 237.559 6.664C238.343 6.328 239.215 6.16 240.175 6.16ZM256.871 18.256C256.535 18.544 256.119 18.768 255.623 18.928C255.127 19.072 254.615 19.144 254.087 19.144C252.807 19.144 251.815 18.8 251.111 18.112C250.407 17.424 250.055 16.44 250.055 15.16V8.176H247.895V6.28H250.055V3.496H252.359V6.28H256.007V8.176H252.359V15.064C252.359 15.752 252.527 16.28 252.863 16.648C253.215 17.016 253.711 17.2 254.351 17.2C255.055 17.2 255.655 17 256.151 16.6L256.871 18.256ZM263.305 19.144C262.265 19.144 261.265 19.008 260.305 18.736C259.345 18.448 258.593 18.088 258.049 17.656L259.009 15.832C259.569 16.232 260.249 16.552 261.049 16.792C261.849 17.032 262.657 17.152 263.473 17.152C265.489 17.152 266.497 16.576 266.497 15.424C266.497 15.04 266.361 14.736 266.089 14.512C265.817 14.288 265.473 14.128 265.057 14.032C264.657 13.92 264.081 13.8 263.329 13.672C262.305 13.512 261.465 13.328 260.809 13.12C260.169 12.912 259.617 12.56 259.153 12.064C258.689 11.568 258.457 10.872 258.457 9.976C258.457 8.824 258.937 7.904 259.897 7.216C260.857 6.512 262.145 6.16 263.761 6.16C264.609 6.16 265.457 6.264 266.305 6.472C267.153 6.68 267.849 6.96 268.393 7.312L267.409 9.136C266.369 8.464 265.145 8.128 263.737 8.128C262.761 8.128 262.017 8.288 261.505 8.608C260.993 8.928 260.737 9.352 260.737 9.88C260.737 10.296 260.881 10.624 261.169 10.864C261.457 11.104 261.809 11.28 262.225 11.392C262.657 11.504 263.257 11.632 264.025 11.776C265.049 11.952 265.873 12.144 266.497 12.352C267.137 12.544 267.681 12.88 268.129 13.36C268.577 13.84 268.801 14.512 268.801 15.376C268.801 16.528 268.305 17.448 267.313 18.136C266.337 18.808 265.001 19.144 263.305 19.144ZM280.333 8.416C280.733 7.68 281.325 7.12 282.109 6.736C282.893 6.352 283.845 6.16 284.965 6.16V8.392C284.837 8.376 284.661 8.368 284.437 8.368C283.189 8.368 282.205 8.744 281.485 9.496C280.781 10.232 280.429 11.288 280.429 12.664V19H278.125V6.28H280.333V8.416ZM299.184 12.712C299.184 12.888 299.168 13.12 299.136 13.408H288.816C288.96 14.528 289.448 15.432 290.28 16.12C291.128 16.792 292.176 17.128 293.424 17.128C294.944 17.128 296.168 16.616 297.096 15.592L298.368 17.08C297.792 17.752 297.072 18.264 296.208 18.616C295.36 18.968 294.408 19.144 293.352 19.144C292.008 19.144 290.816 18.872 289.776 18.328C288.736 17.768 287.928 16.992 287.352 16C286.792 15.008 286.512 13.888 286.512 12.64C286.512 11.408 286.784 10.296 287.328 9.304C287.888 8.312 288.648 7.544 289.608 7C290.584 6.44 291.68 6.16 292.896 6.16C294.112 6.16 295.192 6.44 296.136 7C297.096 7.544 297.84 8.312 298.368 9.304C298.912 10.296 299.184 11.432 299.184 12.712ZM292.896 8.104C291.792 8.104 290.864 8.44 290.112 9.112C289.376 9.784 288.944 10.664 288.816 11.752H296.976C296.848 10.68 296.408 9.808 295.656 9.136C294.92 8.448 294 8.104 292.896 8.104ZM306.031 19.144C304.991 19.144 303.991 19.008 303.031 18.736C302.071 18.448 301.319 18.088 300.775 17.656L301.735 15.832C302.295 16.232 302.975 16.552 303.775 16.792C304.575 17.032 305.383 17.152 306.199 17.152C308.215 17.152 309.223 16.576 309.223 15.424C309.223 15.04 309.087 14.736 308.815 14.512C308.543 14.288 308.199 14.128 307.783 14.032C307.383 13.92 306.807 13.8 306.055 13.672C305.031 13.512 304.191 13.328 303.535 13.12C302.895 12.912 302.343 12.56 301.879 12.064C301.415 11.568 301.183 10.872 301.183 9.976C301.183 8.824 301.663 7.904 302.623 7.216C303.583 6.512 304.871 6.16 306.487 6.16C307.335 6.16 308.183 6.264 309.031 6.472C309.879 6.68 310.575 6.96 311.119 7.312L310.135 9.136C309.095 8.464 307.871 8.128 306.463 8.128C305.487 8.128 304.743 8.288 304.231 8.608C303.719 8.928 303.463 9.352 303.463 9.88C303.463 10.296 303.607 10.624 303.895 10.864C304.183 11.104 304.535 11.28 304.951 11.392C305.383 11.504 305.983 11.632 306.751 11.776C307.775 11.952 308.599 12.144 309.223 12.352C309.863 12.544 310.407 12.88 310.855 13.36C311.303 13.84 311.527 14.512 311.527 15.376C311.527 16.528 311.031 17.448 310.039 18.136C309.063 18.808 307.727 19.144 306.031 19.144ZM325.903 12.712C325.903 12.888 325.887 13.12 325.855 13.408H315.535C315.679 14.528 316.167 15.432 316.999 16.12C317.847 16.792 318.895 17.128 320.143 17.128C321.663 17.128 322.887 16.616 323.815 15.592L325.087 17.08C324.511 17.752 323.791 18.264 322.927 18.616C322.079 18.968 321.127 19.144 320.071 19.144C318.727 19.144 317.535 18.872 316.495 18.328C315.455 17.768 314.647 16.992 314.071 16C313.511 15.008 313.231 13.888 313.231 12.64C313.231 11.408 313.503 10.296 314.047 9.304C314.607 8.312 315.367 7.544 316.327 7C317.303 6.44 318.399 6.16 319.615 6.16C320.831 6.16 321.911 6.44 322.855 7C323.815 7.544 324.559 8.312 325.087 9.304C325.631 10.296 325.903 11.432 325.903 12.712ZM319.615 8.104C318.511 8.104 317.583 8.44 316.831 9.112C316.095 9.784 315.663 10.664 315.535 11.752H323.695C323.567 10.68 323.127 9.808 322.375 9.136C321.639 8.448 320.719 8.104 319.615 8.104ZM331.31 8.416C331.71 7.68 332.302 7.12 333.086 6.736C333.87 6.352 334.822 6.16 335.942 6.16V8.392C335.814 8.376 335.638 8.368 335.414 8.368C334.166 8.368 333.182 8.744 332.462 9.496C331.758 10.232 331.406 11.288 331.406 12.664V19H329.102V6.28H331.31V8.416ZM350.553 6.28L344.985 19H342.633L337.065 6.28H339.465L343.833 16.48L348.297 6.28H350.553ZM363.848 12.712C363.848 12.888 363.832 13.12 363.8 13.408H353.48C353.624 14.528 354.112 15.432 354.944 16.12C355.792 16.792 356.84 17.128 358.088 17.128C359.608 17.128 360.832 16.616 361.76 15.592L363.032 17.08C362.456 17.752 361.736 18.264 360.872 18.616C360.024 18.968 359.072 19.144 358.016 19.144C356.672 19.144 355.48 18.872 354.44 18.328C353.4 17.768 352.592 16.992 352.016 16C351.456 15.008 351.176 13.888 351.176 12.64C351.176 11.408 351.448 10.296 351.992 9.304C352.552 8.312 353.312 7.544 354.272 7C355.248 6.44 356.344 6.16 357.56 6.16C358.776 6.16 359.856 6.44 360.8 7C361.76 7.544 362.504 8.312 363.032 9.304C363.576 10.296 363.848 11.432 363.848 12.712ZM357.56 8.104C356.456 8.104 355.528 8.44 354.776 9.112C354.04 9.784 353.608 10.664 353.48 11.752H361.64C361.512 10.68 361.072 9.808 360.32 9.136C359.584 8.448 358.664 8.104 357.56 8.104ZM379.047 1.192V19H376.839V16.984C376.327 17.688 375.679 18.224 374.895 18.592C374.111 18.96 373.247 19.144 372.303 19.144C371.071 19.144 369.967 18.872 368.991 18.328C368.015 17.784 367.247 17.024 366.687 16.048C366.143 15.056 365.871 13.92 365.871 12.64C365.871 11.36 366.143 10.232 366.687 9.256C367.247 8.28 368.015 7.52 368.991 6.976C369.967 6.432 371.071 6.16 372.303 6.16C373.215 6.16 374.055 6.336 374.823 6.688C375.591 7.024 376.231 7.528 376.743 8.2V1.192H379.047ZM372.495 17.128C373.295 17.128 374.023 16.944 374.679 16.576C375.335 16.192 375.847 15.664 376.215 14.992C376.583 14.304 376.767 13.52 376.767 12.64C376.767 11.76 376.583 10.984 376.215 10.312C375.847 9.624 375.335 9.096 374.679 8.728C374.023 8.36 373.295 8.176 372.495 8.176C371.679 8.176 370.943 8.36 370.287 8.728C369.647 9.096 369.135 9.624 368.751 10.312C368.383 10.984 368.199 11.76 368.199 12.64C368.199 13.52 368.383 14.304 368.751 14.992C369.135 15.664 369.647 16.192 370.287 16.576C370.943 16.944 371.679 17.128 372.495 17.128Z" fill="white"/>
</svg>
